<mxfile host="Electron" modified="2024-06-25T12:57:55.166Z" agent="Mozilla/5.0 (Windows NT 10.0; Win64; x64) AppleWebKit/537.36 (KHTML, like Gecko) draw.io/24.6.1 Chrome/124.0.6367.207 Electron/30.0.6 Safari/537.36" etag="frTEBQi5FAzRF35th2-D" version="24.6.1" type="device">
  <diagram name="Page-1" id="ynv5QPxqh0ftikjWVSWX">
    <mxGraphModel dx="7170" dy="4185" grid="1" gridSize="10" guides="1" tooltips="1" connect="1" arrows="1" fold="1" page="1" pageScale="1" pageWidth="5700" pageHeight="900" math="0" shadow="0">
      <root>
        <mxCell id="0" />
        <mxCell id="1" parent="0" />
        <mxCell id="ETHcJepNX7AGd0SGcHYu-22" value="НАЙМ ВОРКЕРОВ" style="swimlane;whiteSpace=wrap;html=1;startSize=30;" vertex="1" parent="1">
          <mxGeometry x="160" y="160" width="1080" height="280" as="geometry" />
        </mxCell>
        <mxCell id="ETHcJepNX7AGd0SGcHYu-60" style="edgeStyle=orthogonalEdgeStyle;rounded=0;orthogonalLoop=1;jettySize=auto;html=1;exitX=1;exitY=0.5;exitDx=0;exitDy=0;" edge="1" parent="ETHcJepNX7AGd0SGcHYu-22" source="ETHcJepNX7AGd0SGcHYu-43" target="ETHcJepNX7AGd0SGcHYu-44">
          <mxGeometry relative="1" as="geometry" />
        </mxCell>
        <mxCell id="ETHcJepNX7AGd0SGcHYu-61" value="has one" style="edgeLabel;html=1;align=center;verticalAlign=middle;resizable=0;points=[];" vertex="1" connectable="0" parent="ETHcJepNX7AGd0SGcHYu-60">
          <mxGeometry x="0.0417" relative="1" as="geometry">
            <mxPoint as="offset" />
          </mxGeometry>
        </mxCell>
        <mxCell id="ETHcJepNX7AGd0SGcHYu-43" value="КОТ-СОИСКАТЕЛЬ" style="rounded=1;whiteSpace=wrap;html=1;" vertex="1" parent="ETHcJepNX7AGd0SGcHYu-22">
          <mxGeometry x="70" y="60" width="120" height="60" as="geometry" />
        </mxCell>
        <mxCell id="ETHcJepNX7AGd0SGcHYu-62" style="edgeStyle=orthogonalEdgeStyle;rounded=0;orthogonalLoop=1;jettySize=auto;html=1;exitX=1;exitY=0.5;exitDx=0;exitDy=0;entryX=0;entryY=0.5;entryDx=0;entryDy=0;" edge="1" parent="ETHcJepNX7AGd0SGcHYu-22" source="ETHcJepNX7AGd0SGcHYu-44" target="ETHcJepNX7AGd0SGcHYu-46">
          <mxGeometry relative="1" as="geometry" />
        </mxCell>
        <mxCell id="ETHcJepNX7AGd0SGcHYu-63" value="has one" style="edgeLabel;html=1;align=center;verticalAlign=middle;resizable=0;points=[];" vertex="1" connectable="0" parent="ETHcJepNX7AGd0SGcHYu-62">
          <mxGeometry x="-0.0417" y="1" relative="1" as="geometry">
            <mxPoint as="offset" />
          </mxGeometry>
        </mxCell>
        <mxCell id="ETHcJepNX7AGd0SGcHYu-44" value="ЗАЯВКА" style="rounded=1;whiteSpace=wrap;html=1;" vertex="1" parent="ETHcJepNX7AGd0SGcHYu-22">
          <mxGeometry x="270" y="60" width="120" height="60" as="geometry" />
        </mxCell>
        <mxCell id="ETHcJepNX7AGd0SGcHYu-45" value="ТЕСТ" style="rounded=1;whiteSpace=wrap;html=1;" vertex="1" parent="ETHcJepNX7AGd0SGcHYu-22">
          <mxGeometry x="470" y="190" width="120" height="60" as="geometry" />
        </mxCell>
        <mxCell id="ETHcJepNX7AGd0SGcHYu-64" style="edgeStyle=orthogonalEdgeStyle;rounded=0;orthogonalLoop=1;jettySize=auto;html=1;exitX=1;exitY=0.5;exitDx=0;exitDy=0;" edge="1" parent="ETHcJepNX7AGd0SGcHYu-22" source="ETHcJepNX7AGd0SGcHYu-46" target="ETHcJepNX7AGd0SGcHYu-48">
          <mxGeometry relative="1" as="geometry" />
        </mxCell>
        <mxCell id="ETHcJepNX7AGd0SGcHYu-65" value="has one" style="edgeLabel;html=1;align=center;verticalAlign=middle;resizable=0;points=[];" vertex="1" connectable="0" parent="ETHcJepNX7AGd0SGcHYu-64">
          <mxGeometry x="0.0333" y="3" relative="1" as="geometry">
            <mxPoint as="offset" />
          </mxGeometry>
        </mxCell>
        <mxCell id="ETHcJepNX7AGd0SGcHYu-46" value="НАБОР ТЕСТОВ" style="rounded=1;whiteSpace=wrap;html=1;" vertex="1" parent="ETHcJepNX7AGd0SGcHYu-22">
          <mxGeometry x="470" y="60" width="120" height="60" as="geometry" />
        </mxCell>
        <mxCell id="ETHcJepNX7AGd0SGcHYu-66" style="rounded=0;orthogonalLoop=1;jettySize=auto;html=1;exitX=0;exitY=0;exitDx=0;exitDy=0;entryX=1;entryY=1;entryDx=0;entryDy=0;" edge="1" parent="ETHcJepNX7AGd0SGcHYu-22" source="ETHcJepNX7AGd0SGcHYu-47" target="ETHcJepNX7AGd0SGcHYu-46">
          <mxGeometry relative="1" as="geometry" />
        </mxCell>
        <mxCell id="ETHcJepNX7AGd0SGcHYu-67" value="has many" style="edgeLabel;html=1;align=center;verticalAlign=middle;resizable=0;points=[];" vertex="1" connectable="0" parent="ETHcJepNX7AGd0SGcHYu-66">
          <mxGeometry x="-0.0065" y="-1" relative="1" as="geometry">
            <mxPoint as="offset" />
          </mxGeometry>
        </mxCell>
        <mxCell id="ETHcJepNX7AGd0SGcHYu-70" style="edgeStyle=orthogonalEdgeStyle;rounded=0;orthogonalLoop=1;jettySize=auto;html=1;exitX=0.5;exitY=0;exitDx=0;exitDy=0;entryX=0.5;entryY=1;entryDx=0;entryDy=0;" edge="1" parent="ETHcJepNX7AGd0SGcHYu-22" source="ETHcJepNX7AGd0SGcHYu-47" target="ETHcJepNX7AGd0SGcHYu-48">
          <mxGeometry relative="1" as="geometry" />
        </mxCell>
        <mxCell id="ETHcJepNX7AGd0SGcHYu-71" value="has many" style="edgeLabel;html=1;align=center;verticalAlign=middle;resizable=0;points=[];" vertex="1" connectable="0" parent="ETHcJepNX7AGd0SGcHYu-70">
          <mxGeometry x="-0.0095" y="1" relative="1" as="geometry">
            <mxPoint as="offset" />
          </mxGeometry>
        </mxCell>
        <mxCell id="ETHcJepNX7AGd0SGcHYu-47" value="МЕНЕДЖЕР" style="rounded=1;whiteSpace=wrap;html=1;" vertex="1" parent="ETHcJepNX7AGd0SGcHYu-22">
          <mxGeometry x="690" y="190" width="120" height="60" as="geometry" />
        </mxCell>
        <mxCell id="ETHcJepNX7AGd0SGcHYu-48" value="РЕЗУЛЬТАТ ТЕСТИРОВАНИЯ" style="rounded=1;whiteSpace=wrap;html=1;" vertex="1" parent="ETHcJepNX7AGd0SGcHYu-22">
          <mxGeometry x="690" y="60" width="120" height="60" as="geometry" />
        </mxCell>
        <mxCell id="ETHcJepNX7AGd0SGcHYu-77" style="rounded=0;orthogonalLoop=1;jettySize=auto;html=1;exitX=0;exitY=0;exitDx=0;exitDy=0;entryX=1;entryY=1;entryDx=0;entryDy=0;strokeColor=none;" edge="1" parent="ETHcJepNX7AGd0SGcHYu-22" source="ETHcJepNX7AGd0SGcHYu-49" target="ETHcJepNX7AGd0SGcHYu-48">
          <mxGeometry relative="1" as="geometry" />
        </mxCell>
        <mxCell id="ETHcJepNX7AGd0SGcHYu-78" style="rounded=0;orthogonalLoop=1;jettySize=auto;html=1;exitX=0;exitY=0;exitDx=0;exitDy=0;entryX=1;entryY=1;entryDx=0;entryDy=0;" edge="1" parent="ETHcJepNX7AGd0SGcHYu-22" source="ETHcJepNX7AGd0SGcHYu-49" target="ETHcJepNX7AGd0SGcHYu-48">
          <mxGeometry relative="1" as="geometry" />
        </mxCell>
        <mxCell id="ETHcJepNX7AGd0SGcHYu-79" value="has one" style="edgeLabel;html=1;align=center;verticalAlign=middle;resizable=0;points=[];" vertex="1" connectable="0" parent="ETHcJepNX7AGd0SGcHYu-78">
          <mxGeometry x="-0.0027" y="1" relative="1" as="geometry">
            <mxPoint y="1" as="offset" />
          </mxGeometry>
        </mxCell>
        <mxCell id="ETHcJepNX7AGd0SGcHYu-49" value="ВОРКЕР" style="rounded=1;whiteSpace=wrap;html=1;" vertex="1" parent="ETHcJepNX7AGd0SGcHYu-22">
          <mxGeometry x="890" y="190" width="120" height="60" as="geometry" />
        </mxCell>
        <mxCell id="ETHcJepNX7AGd0SGcHYu-73" style="edgeStyle=orthogonalEdgeStyle;rounded=0;orthogonalLoop=1;jettySize=auto;html=1;exitX=0.5;exitY=1;exitDx=0;exitDy=0;entryX=0.5;entryY=0;entryDx=0;entryDy=0;" edge="1" parent="ETHcJepNX7AGd0SGcHYu-22" source="ETHcJepNX7AGd0SGcHYu-50" target="ETHcJepNX7AGd0SGcHYu-49">
          <mxGeometry relative="1" as="geometry" />
        </mxCell>
        <mxCell id="ETHcJepNX7AGd0SGcHYu-74" value="has many" style="edgeLabel;html=1;align=center;verticalAlign=middle;resizable=0;points=[];" vertex="1" connectable="0" parent="ETHcJepNX7AGd0SGcHYu-73">
          <mxGeometry x="-0.0143" relative="1" as="geometry">
            <mxPoint as="offset" />
          </mxGeometry>
        </mxCell>
        <mxCell id="ETHcJepNX7AGd0SGcHYu-50" value="ШТАТ" style="rounded=1;whiteSpace=wrap;html=1;" vertex="1" parent="ETHcJepNX7AGd0SGcHYu-22">
          <mxGeometry x="890" y="60" width="120" height="60" as="geometry" />
        </mxCell>
        <mxCell id="ETHcJepNX7AGd0SGcHYu-68" value="" style="endArrow=classic;startArrow=classic;html=1;rounded=0;exitX=0.5;exitY=0;exitDx=0;exitDy=0;" edge="1" parent="ETHcJepNX7AGd0SGcHYu-22" source="ETHcJepNX7AGd0SGcHYu-45" target="ETHcJepNX7AGd0SGcHYu-46">
          <mxGeometry width="50" height="50" relative="1" as="geometry">
            <mxPoint x="620" y="110" as="sourcePoint" />
            <mxPoint x="670" y="60" as="targetPoint" />
          </mxGeometry>
        </mxCell>
        <mxCell id="ETHcJepNX7AGd0SGcHYu-69" value="has many" style="edgeLabel;html=1;align=center;verticalAlign=middle;resizable=0;points=[];" vertex="1" connectable="0" parent="ETHcJepNX7AGd0SGcHYu-68">
          <mxGeometry x="0.2048" y="-1" relative="1" as="geometry">
            <mxPoint x="-1" y="2" as="offset" />
          </mxGeometry>
        </mxCell>
        <mxCell id="ETHcJepNX7AGd0SGcHYu-80" value="КЛИЕНТСКИЙ ДАШБОРД" style="swimlane;whiteSpace=wrap;html=1;startSize=30;" vertex="1" parent="1">
          <mxGeometry x="1360" y="160" width="460" height="280" as="geometry" />
        </mxCell>
        <mxCell id="ETHcJepNX7AGd0SGcHYu-81" style="edgeStyle=orthogonalEdgeStyle;rounded=0;orthogonalLoop=1;jettySize=auto;html=1;exitX=1;exitY=0.5;exitDx=0;exitDy=0;" edge="1" parent="ETHcJepNX7AGd0SGcHYu-80" source="ETHcJepNX7AGd0SGcHYu-83" target="ETHcJepNX7AGd0SGcHYu-86">
          <mxGeometry relative="1" as="geometry" />
        </mxCell>
        <mxCell id="ETHcJepNX7AGd0SGcHYu-82" value="has many" style="edgeLabel;html=1;align=center;verticalAlign=middle;resizable=0;points=[];" vertex="1" connectable="0" parent="ETHcJepNX7AGd0SGcHYu-81">
          <mxGeometry x="0.0417" relative="1" as="geometry">
            <mxPoint as="offset" />
          </mxGeometry>
        </mxCell>
        <mxCell id="ETHcJepNX7AGd0SGcHYu-83" value="КЛИЕНТ" style="rounded=1;whiteSpace=wrap;html=1;" vertex="1" parent="ETHcJepNX7AGd0SGcHYu-80">
          <mxGeometry x="70" y="60" width="120" height="60" as="geometry" />
        </mxCell>
        <mxCell id="ETHcJepNX7AGd0SGcHYu-109" style="edgeStyle=orthogonalEdgeStyle;rounded=0;orthogonalLoop=1;jettySize=auto;html=1;exitX=0.25;exitY=1;exitDx=0;exitDy=0;entryX=0.25;entryY=0;entryDx=0;entryDy=0;" edge="1" parent="ETHcJepNX7AGd0SGcHYu-80" source="ETHcJepNX7AGd0SGcHYu-86" target="ETHcJepNX7AGd0SGcHYu-106">
          <mxGeometry relative="1" as="geometry" />
        </mxCell>
        <mxCell id="ETHcJepNX7AGd0SGcHYu-112" value="has one" style="edgeLabel;html=1;align=center;verticalAlign=middle;resizable=0;points=[];" vertex="1" connectable="0" parent="ETHcJepNX7AGd0SGcHYu-109">
          <mxGeometry x="-0.0877" relative="1" as="geometry">
            <mxPoint as="offset" />
          </mxGeometry>
        </mxCell>
        <mxCell id="ETHcJepNX7AGd0SGcHYu-86" value="ЗАЯВКА" style="rounded=1;whiteSpace=wrap;html=1;" vertex="1" parent="ETHcJepNX7AGd0SGcHYu-80">
          <mxGeometry x="270" y="60" width="120" height="60" as="geometry" />
        </mxCell>
        <mxCell id="ETHcJepNX7AGd0SGcHYu-110" style="edgeStyle=orthogonalEdgeStyle;rounded=0;orthogonalLoop=1;jettySize=auto;html=1;exitX=0.75;exitY=0;exitDx=0;exitDy=0;entryX=0.75;entryY=1;entryDx=0;entryDy=0;" edge="1" parent="ETHcJepNX7AGd0SGcHYu-80" source="ETHcJepNX7AGd0SGcHYu-106" target="ETHcJepNX7AGd0SGcHYu-86">
          <mxGeometry relative="1" as="geometry" />
        </mxCell>
        <mxCell id="ETHcJepNX7AGd0SGcHYu-111" value="has many" style="edgeLabel;html=1;align=center;verticalAlign=middle;resizable=0;points=[];" vertex="1" connectable="0" parent="ETHcJepNX7AGd0SGcHYu-110">
          <mxGeometry x="0.0415" relative="1" as="geometry">
            <mxPoint as="offset" />
          </mxGeometry>
        </mxCell>
        <mxCell id="ETHcJepNX7AGd0SGcHYu-106" value="УСЛУГА" style="rounded=1;whiteSpace=wrap;html=1;" vertex="1" parent="ETHcJepNX7AGd0SGcHYu-80">
          <mxGeometry x="270" y="170" width="120" height="60" as="geometry" />
        </mxCell>
        <mxCell id="ETHcJepNX7AGd0SGcHYu-113" value="МЭТЧИНГ" style="swimlane;whiteSpace=wrap;html=1;startSize=30;" vertex="1" parent="1">
          <mxGeometry x="1930" y="160" width="650" height="280" as="geometry" />
        </mxCell>
        <mxCell id="ETHcJepNX7AGd0SGcHYu-114" style="edgeStyle=orthogonalEdgeStyle;rounded=0;orthogonalLoop=1;jettySize=auto;html=1;exitX=1;exitY=0.5;exitDx=0;exitDy=0;" edge="1" parent="ETHcJepNX7AGd0SGcHYu-113" source="ETHcJepNX7AGd0SGcHYu-116" target="ETHcJepNX7AGd0SGcHYu-119">
          <mxGeometry relative="1" as="geometry" />
        </mxCell>
        <mxCell id="ETHcJepNX7AGd0SGcHYu-115" value="has one" style="edgeLabel;html=1;align=center;verticalAlign=middle;resizable=0;points=[];" vertex="1" connectable="0" parent="ETHcJepNX7AGd0SGcHYu-114">
          <mxGeometry x="0.0417" relative="1" as="geometry">
            <mxPoint as="offset" />
          </mxGeometry>
        </mxCell>
        <mxCell id="ETHcJepNX7AGd0SGcHYu-116" value="ЗАЯВКА" style="rounded=1;whiteSpace=wrap;html=1;" vertex="1" parent="ETHcJepNX7AGd0SGcHYu-113">
          <mxGeometry x="70" y="60" width="120" height="60" as="geometry" />
        </mxCell>
        <mxCell id="ETHcJepNX7AGd0SGcHYu-129" style="rounded=0;orthogonalLoop=1;jettySize=auto;html=1;exitX=1;exitY=1;exitDx=0;exitDy=0;entryX=0;entryY=0;entryDx=0;entryDy=0;" edge="1" parent="ETHcJepNX7AGd0SGcHYu-113" source="ETHcJepNX7AGd0SGcHYu-119" target="ETHcJepNX7AGd0SGcHYu-128">
          <mxGeometry relative="1" as="geometry" />
        </mxCell>
        <mxCell id="ETHcJepNX7AGd0SGcHYu-132" value="has one" style="edgeLabel;html=1;align=center;verticalAlign=middle;resizable=0;points=[];" vertex="1" connectable="0" parent="ETHcJepNX7AGd0SGcHYu-129">
          <mxGeometry x="-0.132" y="-3" relative="1" as="geometry">
            <mxPoint as="offset" />
          </mxGeometry>
        </mxCell>
        <mxCell id="ETHcJepNX7AGd0SGcHYu-119" value="МЭТЧИНГ" style="rounded=1;whiteSpace=wrap;html=1;" vertex="1" parent="ETHcJepNX7AGd0SGcHYu-113">
          <mxGeometry x="270" y="60" width="120" height="60" as="geometry" />
        </mxCell>
        <mxCell id="ETHcJepNX7AGd0SGcHYu-125" style="edgeStyle=orthogonalEdgeStyle;rounded=0;orthogonalLoop=1;jettySize=auto;html=1;exitX=1;exitY=0.5;exitDx=0;exitDy=0;" edge="1" parent="ETHcJepNX7AGd0SGcHYu-113" target="ETHcJepNX7AGd0SGcHYu-127">
          <mxGeometry relative="1" as="geometry">
            <mxPoint x="390" y="90" as="sourcePoint" />
          </mxGeometry>
        </mxCell>
        <mxCell id="ETHcJepNX7AGd0SGcHYu-126" value="has one" style="edgeLabel;html=1;align=center;verticalAlign=middle;resizable=0;points=[];" vertex="1" connectable="0" parent="ETHcJepNX7AGd0SGcHYu-125">
          <mxGeometry x="0.0417" relative="1" as="geometry">
            <mxPoint as="offset" />
          </mxGeometry>
        </mxCell>
        <mxCell id="ETHcJepNX7AGd0SGcHYu-130" style="edgeStyle=orthogonalEdgeStyle;rounded=0;orthogonalLoop=1;jettySize=auto;html=1;exitX=0.5;exitY=1;exitDx=0;exitDy=0;entryX=0.5;entryY=0;entryDx=0;entryDy=0;" edge="1" parent="ETHcJepNX7AGd0SGcHYu-113" source="ETHcJepNX7AGd0SGcHYu-127" target="ETHcJepNX7AGd0SGcHYu-128">
          <mxGeometry relative="1" as="geometry" />
        </mxCell>
        <mxCell id="ETHcJepNX7AGd0SGcHYu-131" value="has one" style="edgeLabel;html=1;align=center;verticalAlign=middle;resizable=0;points=[];" vertex="1" connectable="0" parent="ETHcJepNX7AGd0SGcHYu-130">
          <mxGeometry x="-0.08" y="-1" relative="1" as="geometry">
            <mxPoint as="offset" />
          </mxGeometry>
        </mxCell>
        <mxCell id="ETHcJepNX7AGd0SGcHYu-127" value="ЗАДАЧА" style="rounded=1;whiteSpace=wrap;html=1;" vertex="1" parent="ETHcJepNX7AGd0SGcHYu-113">
          <mxGeometry x="470" y="60" width="120" height="60" as="geometry" />
        </mxCell>
        <mxCell id="ETHcJepNX7AGd0SGcHYu-128" value="ВОРКЕР" style="rounded=1;whiteSpace=wrap;html=1;" vertex="1" parent="ETHcJepNX7AGd0SGcHYu-113">
          <mxGeometry x="470" y="160" width="120" height="60" as="geometry" />
        </mxCell>
        <mxCell id="ETHcJepNX7AGd0SGcHYu-134" style="edgeStyle=orthogonalEdgeStyle;rounded=0;orthogonalLoop=1;jettySize=auto;html=1;exitX=0.5;exitY=1;exitDx=0;exitDy=0;entryX=0.5;entryY=1;entryDx=0;entryDy=0;dashed=1;dashPattern=12 12;shape=link;fillColor=#dae8fc;strokeColor=#6c8ebf;" edge="1" parent="1" source="ETHcJepNX7AGd0SGcHYu-49" target="ETHcJepNX7AGd0SGcHYu-128">
          <mxGeometry relative="1" as="geometry">
            <Array as="points">
              <mxPoint x="1110" y="520" />
              <mxPoint x="2460" y="520" />
            </Array>
          </mxGeometry>
        </mxCell>
        <mxCell id="ETHcJepNX7AGd0SGcHYu-136" style="edgeStyle=orthogonalEdgeStyle;rounded=0;orthogonalLoop=1;jettySize=auto;html=1;exitX=1;exitY=0.5;exitDx=0;exitDy=0;entryX=0;entryY=0.5;entryDx=0;entryDy=0;shape=link;dashed=1;dashPattern=12 12;fillColor=#fff2cc;strokeColor=#d6b656;" edge="1" parent="1" source="ETHcJepNX7AGd0SGcHYu-86" target="ETHcJepNX7AGd0SGcHYu-116">
          <mxGeometry relative="1" as="geometry" />
        </mxCell>
        <mxCell id="ETHcJepNX7AGd0SGcHYu-137" value="КОМПЛЕКТОВАНИЕ" style="swimlane;whiteSpace=wrap;html=1;startSize=30;" vertex="1" parent="1">
          <mxGeometry x="2720" y="160" width="830" height="280" as="geometry" />
        </mxCell>
        <mxCell id="ETHcJepNX7AGd0SGcHYu-138" style="edgeStyle=orthogonalEdgeStyle;rounded=0;orthogonalLoop=1;jettySize=auto;html=1;exitX=1;exitY=0.5;exitDx=0;exitDy=0;" edge="1" parent="ETHcJepNX7AGd0SGcHYu-137" source="ETHcJepNX7AGd0SGcHYu-140" target="ETHcJepNX7AGd0SGcHYu-143">
          <mxGeometry relative="1" as="geometry" />
        </mxCell>
        <mxCell id="ETHcJepNX7AGd0SGcHYu-139" value="has one" style="edgeLabel;html=1;align=center;verticalAlign=middle;resizable=0;points=[];" vertex="1" connectable="0" parent="ETHcJepNX7AGd0SGcHYu-138">
          <mxGeometry x="0.0417" relative="1" as="geometry">
            <mxPoint as="offset" />
          </mxGeometry>
        </mxCell>
        <mxCell id="ETHcJepNX7AGd0SGcHYu-140" value="ЗАЯВКА" style="rounded=1;whiteSpace=wrap;html=1;" vertex="1" parent="ETHcJepNX7AGd0SGcHYu-137">
          <mxGeometry x="70" y="60" width="120" height="60" as="geometry" />
        </mxCell>
        <mxCell id="ETHcJepNX7AGd0SGcHYu-156" style="edgeStyle=orthogonalEdgeStyle;rounded=0;orthogonalLoop=1;jettySize=auto;html=1;exitX=0.5;exitY=1;exitDx=0;exitDy=0;entryX=0.5;entryY=0;entryDx=0;entryDy=0;" edge="1" parent="ETHcJepNX7AGd0SGcHYu-137" source="ETHcJepNX7AGd0SGcHYu-143" target="ETHcJepNX7AGd0SGcHYu-150">
          <mxGeometry relative="1" as="geometry" />
        </mxCell>
        <mxCell id="ETHcJepNX7AGd0SGcHYu-157" value="has one" style="edgeLabel;html=1;align=center;verticalAlign=middle;resizable=0;points=[];" vertex="1" connectable="0" parent="ETHcJepNX7AGd0SGcHYu-156">
          <mxGeometry x="-0.175" y="-2" relative="1" as="geometry">
            <mxPoint as="offset" />
          </mxGeometry>
        </mxCell>
        <mxCell id="ETHcJepNX7AGd0SGcHYu-143" value="СБОРЩИК" style="rounded=1;whiteSpace=wrap;html=1;" vertex="1" parent="ETHcJepNX7AGd0SGcHYu-137">
          <mxGeometry x="270" y="60" width="120" height="60" as="geometry" />
        </mxCell>
        <mxCell id="ETHcJepNX7AGd0SGcHYu-150" value="ЗАКАЗ ПЕЧЕНЬЯ" style="rounded=1;whiteSpace=wrap;html=1;" vertex="1" parent="ETHcJepNX7AGd0SGcHYu-137">
          <mxGeometry x="270" y="160" width="120" height="60" as="geometry" />
        </mxCell>
        <mxCell id="ETHcJepNX7AGd0SGcHYu-163" style="edgeStyle=orthogonalEdgeStyle;rounded=0;orthogonalLoop=1;jettySize=auto;html=1;exitX=0;exitY=0.5;exitDx=0;exitDy=0;entryX=1;entryY=0.5;entryDx=0;entryDy=0;" edge="1" parent="ETHcJepNX7AGd0SGcHYu-137" source="ETHcJepNX7AGd0SGcHYu-158" target="ETHcJepNX7AGd0SGcHYu-143">
          <mxGeometry relative="1" as="geometry" />
        </mxCell>
        <mxCell id="ETHcJepNX7AGd0SGcHYu-165" value="has one" style="edgeLabel;html=1;align=center;verticalAlign=middle;resizable=0;points=[];" vertex="1" connectable="0" parent="ETHcJepNX7AGd0SGcHYu-163">
          <mxGeometry x="-0.0135" y="-1" relative="1" as="geometry">
            <mxPoint as="offset" />
          </mxGeometry>
        </mxCell>
        <mxCell id="ETHcJepNX7AGd0SGcHYu-164" style="rounded=0;orthogonalLoop=1;jettySize=auto;html=1;exitX=0;exitY=1;exitDx=0;exitDy=0;entryX=1;entryY=0;entryDx=0;entryDy=0;" edge="1" parent="ETHcJepNX7AGd0SGcHYu-137" source="ETHcJepNX7AGd0SGcHYu-158" target="ETHcJepNX7AGd0SGcHYu-150">
          <mxGeometry relative="1" as="geometry" />
        </mxCell>
        <mxCell id="ETHcJepNX7AGd0SGcHYu-166" value="has one" style="edgeLabel;html=1;align=center;verticalAlign=middle;resizable=0;points=[];" vertex="1" connectable="0" parent="ETHcJepNX7AGd0SGcHYu-164">
          <mxGeometry x="-0.0611" y="1" relative="1" as="geometry">
            <mxPoint as="offset" />
          </mxGeometry>
        </mxCell>
        <mxCell id="ETHcJepNX7AGd0SGcHYu-168" style="edgeStyle=orthogonalEdgeStyle;rounded=0;orthogonalLoop=1;jettySize=auto;html=1;exitX=0.5;exitY=1;exitDx=0;exitDy=0;entryX=0.5;entryY=0;entryDx=0;entryDy=0;" edge="1" parent="ETHcJepNX7AGd0SGcHYu-137" source="ETHcJepNX7AGd0SGcHYu-158" target="ETHcJepNX7AGd0SGcHYu-167">
          <mxGeometry relative="1" as="geometry" />
        </mxCell>
        <mxCell id="ETHcJepNX7AGd0SGcHYu-169" value="has many" style="edgeLabel;html=1;align=center;verticalAlign=middle;resizable=0;points=[];" vertex="1" connectable="0" parent="ETHcJepNX7AGd0SGcHYu-168">
          <mxGeometry x="0.1217" y="-1" relative="1" as="geometry">
            <mxPoint x="1" y="-3" as="offset" />
          </mxGeometry>
        </mxCell>
        <mxCell id="ETHcJepNX7AGd0SGcHYu-158" value="КОМПЛЕКТ" style="rounded=1;whiteSpace=wrap;html=1;" vertex="1" parent="ETHcJepNX7AGd0SGcHYu-137">
          <mxGeometry x="480" y="60" width="120" height="60" as="geometry" />
        </mxCell>
        <mxCell id="ETHcJepNX7AGd0SGcHYu-167" value="РАСХОДНИК" style="rounded=1;whiteSpace=wrap;html=1;" vertex="1" parent="ETHcJepNX7AGd0SGcHYu-137">
          <mxGeometry x="480" y="160" width="120" height="60" as="geometry" />
        </mxCell>
        <mxCell id="ETHcJepNX7AGd0SGcHYu-190" style="edgeStyle=orthogonalEdgeStyle;rounded=0;orthogonalLoop=1;jettySize=auto;html=1;exitX=0;exitY=0.5;exitDx=0;exitDy=0;entryX=1;entryY=0.5;entryDx=0;entryDy=0;" edge="1" parent="ETHcJepNX7AGd0SGcHYu-137" source="ETHcJepNX7AGd0SGcHYu-189" target="ETHcJepNX7AGd0SGcHYu-158">
          <mxGeometry relative="1" as="geometry" />
        </mxCell>
        <mxCell id="ETHcJepNX7AGd0SGcHYu-191" value="has one" style="edgeLabel;html=1;align=center;verticalAlign=middle;resizable=0;points=[];" vertex="1" connectable="0" parent="ETHcJepNX7AGd0SGcHYu-190">
          <mxGeometry x="0.0053" relative="1" as="geometry">
            <mxPoint as="offset" />
          </mxGeometry>
        </mxCell>
        <mxCell id="ETHcJepNX7AGd0SGcHYu-189" value="ВОРКЕР" style="rounded=1;whiteSpace=wrap;html=1;" vertex="1" parent="ETHcJepNX7AGd0SGcHYu-137">
          <mxGeometry x="680" y="60" width="120" height="60" as="geometry" />
        </mxCell>
        <mxCell id="ETHcJepNX7AGd0SGcHYu-155" style="edgeStyle=orthogonalEdgeStyle;rounded=0;orthogonalLoop=1;jettySize=auto;html=1;exitX=1;exitY=0.5;exitDx=0;exitDy=0;entryX=0;entryY=0.5;entryDx=0;entryDy=0;shape=link;dashed=1;dashPattern=12 12;fillColor=#d5e8d4;strokeColor=#82b366;" edge="1" parent="1" source="ETHcJepNX7AGd0SGcHYu-127" target="ETHcJepNX7AGd0SGcHYu-140">
          <mxGeometry relative="1" as="geometry" />
        </mxCell>
        <mxCell id="ETHcJepNX7AGd0SGcHYu-170" value="ВЫПОЛНЕНИЕ ЗАДАЧ" style="swimlane;whiteSpace=wrap;html=1;startSize=30;" vertex="1" parent="1">
          <mxGeometry x="3600" y="160" width="460" height="560" as="geometry" />
        </mxCell>
        <mxCell id="ETHcJepNX7AGd0SGcHYu-187" style="edgeStyle=orthogonalEdgeStyle;rounded=0;orthogonalLoop=1;jettySize=auto;html=1;exitX=0.5;exitY=1;exitDx=0;exitDy=0;entryX=0.5;entryY=0;entryDx=0;entryDy=0;" edge="1" parent="ETHcJepNX7AGd0SGcHYu-170" source="ETHcJepNX7AGd0SGcHYu-173" target="ETHcJepNX7AGd0SGcHYu-186">
          <mxGeometry relative="1" as="geometry" />
        </mxCell>
        <mxCell id="ETHcJepNX7AGd0SGcHYu-188" value="has one" style="edgeLabel;html=1;align=center;verticalAlign=middle;resizable=0;points=[];" vertex="1" connectable="0" parent="ETHcJepNX7AGd0SGcHYu-187">
          <mxGeometry x="-0.1231" relative="1" as="geometry">
            <mxPoint as="offset" />
          </mxGeometry>
        </mxCell>
        <mxCell id="ETHcJepNX7AGd0SGcHYu-195" style="edgeStyle=orthogonalEdgeStyle;rounded=0;orthogonalLoop=1;jettySize=auto;html=1;exitX=1;exitY=0.5;exitDx=0;exitDy=0;entryX=0;entryY=0.5;entryDx=0;entryDy=0;" edge="1" parent="ETHcJepNX7AGd0SGcHYu-170" source="ETHcJepNX7AGd0SGcHYu-173" target="ETHcJepNX7AGd0SGcHYu-194">
          <mxGeometry relative="1" as="geometry" />
        </mxCell>
        <mxCell id="ETHcJepNX7AGd0SGcHYu-196" value="has one" style="edgeLabel;html=1;align=center;verticalAlign=middle;resizable=0;points=[];" vertex="1" connectable="0" parent="ETHcJepNX7AGd0SGcHYu-195">
          <mxGeometry x="-0.0178" y="-1" relative="1" as="geometry">
            <mxPoint as="offset" />
          </mxGeometry>
        </mxCell>
        <mxCell id="ETHcJepNX7AGd0SGcHYu-198" style="rounded=0;orthogonalLoop=1;jettySize=auto;html=1;exitX=1;exitY=1;exitDx=0;exitDy=0;entryX=0;entryY=0;entryDx=0;entryDy=0;" edge="1" parent="ETHcJepNX7AGd0SGcHYu-170" source="ETHcJepNX7AGd0SGcHYu-173" target="ETHcJepNX7AGd0SGcHYu-197">
          <mxGeometry relative="1" as="geometry" />
        </mxCell>
        <mxCell id="ETHcJepNX7AGd0SGcHYu-199" value="has one" style="edgeLabel;html=1;align=center;verticalAlign=middle;resizable=0;points=[];" vertex="1" connectable="0" parent="ETHcJepNX7AGd0SGcHYu-198">
          <mxGeometry x="-0.0327" relative="1" as="geometry">
            <mxPoint as="offset" />
          </mxGeometry>
        </mxCell>
        <mxCell id="ETHcJepNX7AGd0SGcHYu-243" style="rounded=0;orthogonalLoop=1;jettySize=auto;html=1;exitX=1;exitY=1;exitDx=0;exitDy=0;entryX=0;entryY=0;entryDx=0;entryDy=0;" edge="1" parent="ETHcJepNX7AGd0SGcHYu-170" source="ETHcJepNX7AGd0SGcHYu-173" target="ETHcJepNX7AGd0SGcHYu-201">
          <mxGeometry relative="1" as="geometry" />
        </mxCell>
        <mxCell id="ETHcJepNX7AGd0SGcHYu-244" value="has one" style="edgeLabel;html=1;align=center;verticalAlign=middle;resizable=0;points=[];" vertex="1" connectable="0" parent="ETHcJepNX7AGd0SGcHYu-243">
          <mxGeometry x="-0.001" y="-1" relative="1" as="geometry">
            <mxPoint as="offset" />
          </mxGeometry>
        </mxCell>
        <mxCell id="ETHcJepNX7AGd0SGcHYu-245" style="edgeStyle=orthogonalEdgeStyle;rounded=0;orthogonalLoop=1;jettySize=auto;html=1;exitX=0;exitY=1;exitDx=0;exitDy=0;entryX=0;entryY=0;entryDx=0;entryDy=0;" edge="1" parent="ETHcJepNX7AGd0SGcHYu-170" source="ETHcJepNX7AGd0SGcHYu-173" target="ETHcJepNX7AGd0SGcHYu-200">
          <mxGeometry relative="1" as="geometry">
            <Array as="points">
              <mxPoint x="50" y="120" />
              <mxPoint x="50" y="270" />
            </Array>
          </mxGeometry>
        </mxCell>
        <mxCell id="ETHcJepNX7AGd0SGcHYu-246" value="has one" style="edgeLabel;html=1;align=center;verticalAlign=middle;resizable=0;points=[];" vertex="1" connectable="0" parent="ETHcJepNX7AGd0SGcHYu-245">
          <mxGeometry x="0.4238" y="-1" relative="1" as="geometry">
            <mxPoint y="1" as="offset" />
          </mxGeometry>
        </mxCell>
        <mxCell id="ETHcJepNX7AGd0SGcHYu-173" value="ЗАДАЧА" style="rounded=1;whiteSpace=wrap;html=1;" vertex="1" parent="ETHcJepNX7AGd0SGcHYu-170">
          <mxGeometry x="70" y="60" width="120" height="60" as="geometry" />
        </mxCell>
        <mxCell id="ETHcJepNX7AGd0SGcHYu-202" style="edgeStyle=orthogonalEdgeStyle;rounded=0;orthogonalLoop=1;jettySize=auto;html=1;exitX=0.5;exitY=1;exitDx=0;exitDy=0;entryX=0.5;entryY=0;entryDx=0;entryDy=0;" edge="1" parent="ETHcJepNX7AGd0SGcHYu-170" source="ETHcJepNX7AGd0SGcHYu-186" target="ETHcJepNX7AGd0SGcHYu-200">
          <mxGeometry relative="1" as="geometry" />
        </mxCell>
        <mxCell id="ETHcJepNX7AGd0SGcHYu-203" value="has many" style="edgeLabel;html=1;align=center;verticalAlign=middle;resizable=0;points=[];" vertex="1" connectable="0" parent="ETHcJepNX7AGd0SGcHYu-202">
          <mxGeometry x="-0.07" y="-1" relative="1" as="geometry">
            <mxPoint as="offset" />
          </mxGeometry>
        </mxCell>
        <mxCell id="ETHcJepNX7AGd0SGcHYu-186" value="ВОРКЕР" style="rounded=1;whiteSpace=wrap;html=1;" vertex="1" parent="ETHcJepNX7AGd0SGcHYu-170">
          <mxGeometry x="70" y="160" width="120" height="60" as="geometry" />
        </mxCell>
        <mxCell id="ETHcJepNX7AGd0SGcHYu-194" value="РЕЗУЛЬТАТ" style="rounded=1;whiteSpace=wrap;html=1;" vertex="1" parent="ETHcJepNX7AGd0SGcHYu-170">
          <mxGeometry x="280" y="60" width="120" height="60" as="geometry" />
        </mxCell>
        <mxCell id="ETHcJepNX7AGd0SGcHYu-204" style="edgeStyle=orthogonalEdgeStyle;rounded=0;orthogonalLoop=1;jettySize=auto;html=1;exitX=0.5;exitY=1;exitDx=0;exitDy=0;entryX=0.5;entryY=0;entryDx=0;entryDy=0;" edge="1" parent="ETHcJepNX7AGd0SGcHYu-170" source="ETHcJepNX7AGd0SGcHYu-197" target="ETHcJepNX7AGd0SGcHYu-201">
          <mxGeometry relative="1" as="geometry" />
        </mxCell>
        <mxCell id="ETHcJepNX7AGd0SGcHYu-205" value="has many" style="edgeLabel;html=1;align=center;verticalAlign=middle;resizable=0;points=[];" vertex="1" connectable="0" parent="ETHcJepNX7AGd0SGcHYu-204">
          <mxGeometry x="-0.07" relative="1" as="geometry">
            <mxPoint as="offset" />
          </mxGeometry>
        </mxCell>
        <mxCell id="ETHcJepNX7AGd0SGcHYu-197" value="КЛИЕНТ" style="rounded=1;whiteSpace=wrap;html=1;" vertex="1" parent="ETHcJepNX7AGd0SGcHYu-170">
          <mxGeometry x="280" y="160" width="120" height="60" as="geometry" />
        </mxCell>
        <mxCell id="ETHcJepNX7AGd0SGcHYu-200" value="НАЧИСЛЕНИЕ ЗА ЗАДАЧУ" style="rounded=1;whiteSpace=wrap;html=1;" vertex="1" parent="ETHcJepNX7AGd0SGcHYu-170">
          <mxGeometry x="70" y="270" width="120" height="60" as="geometry" />
        </mxCell>
        <mxCell id="ETHcJepNX7AGd0SGcHYu-201" value="СПИСАНИЕ ЗА ЗАДАЧУ" style="rounded=1;whiteSpace=wrap;html=1;" vertex="1" parent="ETHcJepNX7AGd0SGcHYu-170">
          <mxGeometry x="280" y="270" width="120" height="60" as="geometry" />
        </mxCell>
        <mxCell id="ETHcJepNX7AGd0SGcHYu-248" style="edgeStyle=orthogonalEdgeStyle;rounded=0;orthogonalLoop=1;jettySize=auto;html=1;exitX=0.5;exitY=0;exitDx=0;exitDy=0;entryX=0.5;entryY=1;entryDx=0;entryDy=0;" edge="1" parent="ETHcJepNX7AGd0SGcHYu-170" source="ETHcJepNX7AGd0SGcHYu-247" target="ETHcJepNX7AGd0SGcHYu-200">
          <mxGeometry relative="1" as="geometry">
            <mxPoint x="130" y="340" as="targetPoint" />
          </mxGeometry>
        </mxCell>
        <mxCell id="ETHcJepNX7AGd0SGcHYu-251" value="has many" style="edgeLabel;html=1;align=center;verticalAlign=middle;resizable=0;points=[];" vertex="1" connectable="0" parent="ETHcJepNX7AGd0SGcHYu-248">
          <mxGeometry x="-0.025" relative="1" as="geometry">
            <mxPoint y="1" as="offset" />
          </mxGeometry>
        </mxCell>
        <mxCell id="ETHcJepNX7AGd0SGcHYu-258" style="edgeStyle=orthogonalEdgeStyle;rounded=0;orthogonalLoop=1;jettySize=auto;html=1;exitX=0.5;exitY=1;exitDx=0;exitDy=0;entryX=0.5;entryY=0;entryDx=0;entryDy=0;" edge="1" parent="ETHcJepNX7AGd0SGcHYu-170" source="ETHcJepNX7AGd0SGcHYu-247" target="ETHcJepNX7AGd0SGcHYu-254">
          <mxGeometry relative="1" as="geometry" />
        </mxCell>
        <mxCell id="ETHcJepNX7AGd0SGcHYu-259" value="has many" style="edgeLabel;html=1;align=center;verticalAlign=middle;resizable=0;points=[];" vertex="1" connectable="0" parent="ETHcJepNX7AGd0SGcHYu-258">
          <mxGeometry x="-0.0139" relative="1" as="geometry">
            <mxPoint as="offset" />
          </mxGeometry>
        </mxCell>
        <mxCell id="ETHcJepNX7AGd0SGcHYu-247" value="ПЕРЕВОД НАЧИСЛЕНИЙ" style="rounded=1;whiteSpace=wrap;html=1;" vertex="1" parent="ETHcJepNX7AGd0SGcHYu-170">
          <mxGeometry x="70" y="370" width="120" height="60" as="geometry" />
        </mxCell>
        <mxCell id="ETHcJepNX7AGd0SGcHYu-250" style="edgeStyle=orthogonalEdgeStyle;rounded=0;orthogonalLoop=1;jettySize=auto;html=1;exitX=0.5;exitY=0;exitDx=0;exitDy=0;entryX=0.5;entryY=1;entryDx=0;entryDy=0;" edge="1" parent="ETHcJepNX7AGd0SGcHYu-170" source="ETHcJepNX7AGd0SGcHYu-249" target="ETHcJepNX7AGd0SGcHYu-201">
          <mxGeometry relative="1" as="geometry" />
        </mxCell>
        <mxCell id="ETHcJepNX7AGd0SGcHYu-252" value="has many" style="edgeLabel;html=1;align=center;verticalAlign=middle;resizable=0;points=[];" vertex="1" connectable="0" parent="ETHcJepNX7AGd0SGcHYu-250">
          <mxGeometry x="-0.175" relative="1" as="geometry">
            <mxPoint y="1" as="offset" />
          </mxGeometry>
        </mxCell>
        <mxCell id="ETHcJepNX7AGd0SGcHYu-249" value="ПЕРЕВОД СПИСАНИЙ" style="rounded=1;whiteSpace=wrap;html=1;" vertex="1" parent="ETHcJepNX7AGd0SGcHYu-170">
          <mxGeometry x="280" y="370" width="120" height="60" as="geometry" />
        </mxCell>
        <mxCell id="ETHcJepNX7AGd0SGcHYu-260" style="edgeStyle=orthogonalEdgeStyle;rounded=0;orthogonalLoop=1;jettySize=auto;html=1;exitX=0;exitY=0.5;exitDx=0;exitDy=0;entryX=0;entryY=0.75;entryDx=0;entryDy=0;jumpStyle=arc;jumpSize=10;" edge="1" parent="ETHcJepNX7AGd0SGcHYu-170" source="ETHcJepNX7AGd0SGcHYu-254" target="ETHcJepNX7AGd0SGcHYu-186">
          <mxGeometry relative="1" as="geometry">
            <Array as="points">
              <mxPoint x="30" y="500" />
              <mxPoint x="30" y="205" />
            </Array>
          </mxGeometry>
        </mxCell>
        <mxCell id="ETHcJepNX7AGd0SGcHYu-261" value="has one" style="edgeLabel;html=1;align=center;verticalAlign=middle;resizable=0;points=[];" vertex="1" connectable="0" parent="ETHcJepNX7AGd0SGcHYu-260">
          <mxGeometry x="0.029" y="-1" relative="1" as="geometry">
            <mxPoint as="offset" />
          </mxGeometry>
        </mxCell>
        <mxCell id="ETHcJepNX7AGd0SGcHYu-254" value="НАЧИСЛЕНИЕ ПРЕМИИ ВОРКЕРУ" style="rounded=1;whiteSpace=wrap;html=1;" vertex="1" parent="ETHcJepNX7AGd0SGcHYu-170">
          <mxGeometry x="70" y="470" width="120" height="60" as="geometry" />
        </mxCell>
        <mxCell id="ETHcJepNX7AGd0SGcHYu-256" style="edgeStyle=orthogonalEdgeStyle;rounded=0;orthogonalLoop=1;jettySize=auto;html=1;exitX=0;exitY=0.5;exitDx=0;exitDy=0;entryX=1;entryY=0.5;entryDx=0;entryDy=0;" edge="1" parent="ETHcJepNX7AGd0SGcHYu-170" source="ETHcJepNX7AGd0SGcHYu-255" target="ETHcJepNX7AGd0SGcHYu-254">
          <mxGeometry relative="1" as="geometry" />
        </mxCell>
        <mxCell id="ETHcJepNX7AGd0SGcHYu-257" value="has many" style="edgeLabel;html=1;align=center;verticalAlign=middle;resizable=0;points=[];" vertex="1" connectable="0" parent="ETHcJepNX7AGd0SGcHYu-256">
          <mxGeometry x="0.0328" y="-4" relative="1" as="geometry">
            <mxPoint y="4" as="offset" />
          </mxGeometry>
        </mxCell>
        <mxCell id="ETHcJepNX7AGd0SGcHYu-255" value="МЕНЕДЖЕР" style="rounded=1;whiteSpace=wrap;html=1;" vertex="1" parent="ETHcJepNX7AGd0SGcHYu-170">
          <mxGeometry x="280" y="470" width="120" height="60" as="geometry" />
        </mxCell>
        <mxCell id="ETHcJepNX7AGd0SGcHYu-192" style="edgeStyle=orthogonalEdgeStyle;rounded=0;orthogonalLoop=1;jettySize=auto;html=1;exitX=0.5;exitY=1;exitDx=0;exitDy=0;entryX=0.5;entryY=1;entryDx=0;entryDy=0;shape=link;dashed=1;dashPattern=12 12;fillColor=#dae8fc;strokeColor=#6c8ebf;" edge="1" parent="1" source="ETHcJepNX7AGd0SGcHYu-128" target="ETHcJepNX7AGd0SGcHYu-189">
          <mxGeometry relative="1" as="geometry">
            <Array as="points">
              <mxPoint x="2460" y="520" />
              <mxPoint x="3460" y="520" />
            </Array>
          </mxGeometry>
        </mxCell>
        <mxCell id="ETHcJepNX7AGd0SGcHYu-193" style="edgeStyle=orthogonalEdgeStyle;rounded=0;orthogonalLoop=1;jettySize=auto;html=1;exitX=0.5;exitY=1;exitDx=0;exitDy=0;entryX=0;entryY=0.5;entryDx=0;entryDy=0;shape=link;dashed=1;dashPattern=12 12;fillColor=#dae8fc;strokeColor=#6c8ebf;" edge="1" parent="1" source="ETHcJepNX7AGd0SGcHYu-189" target="ETHcJepNX7AGd0SGcHYu-186">
          <mxGeometry relative="1" as="geometry" />
        </mxCell>
        <mxCell id="ETHcJepNX7AGd0SGcHYu-210" style="edgeStyle=orthogonalEdgeStyle;rounded=0;orthogonalLoop=1;jettySize=auto;html=1;exitX=0.5;exitY=1;exitDx=0;exitDy=0;entryX=1;entryY=0.5;entryDx=0;entryDy=0;shape=link;dashed=1;dashPattern=12 12;fillColor=#f8cecc;strokeColor=#b85450;" edge="1" parent="1" source="ETHcJepNX7AGd0SGcHYu-83" target="ETHcJepNX7AGd0SGcHYu-197">
          <mxGeometry relative="1" as="geometry">
            <Array as="points">
              <mxPoint x="1490" y="110" />
              <mxPoint x="4110" y="110" />
              <mxPoint x="4110" y="350" />
            </Array>
          </mxGeometry>
        </mxCell>
        <mxCell id="ETHcJepNX7AGd0SGcHYu-211" value="ТОТАЛИЗАТОР" style="swimlane;whiteSpace=wrap;html=1;startSize=30;" vertex="1" parent="1">
          <mxGeometry x="4160" y="160" width="640" height="260" as="geometry" />
        </mxCell>
        <mxCell id="ETHcJepNX7AGd0SGcHYu-233" style="edgeStyle=orthogonalEdgeStyle;rounded=0;orthogonalLoop=1;jettySize=auto;html=1;exitX=1;exitY=0.5;exitDx=0;exitDy=0;entryX=0;entryY=0.5;entryDx=0;entryDy=0;" edge="1" parent="ETHcJepNX7AGd0SGcHYu-211" source="ETHcJepNX7AGd0SGcHYu-218" target="ETHcJepNX7AGd0SGcHYu-222">
          <mxGeometry relative="1" as="geometry" />
        </mxCell>
        <mxCell id="ETHcJepNX7AGd0SGcHYu-238" value="has one" style="edgeLabel;html=1;align=center;verticalAlign=middle;resizable=0;points=[];" vertex="1" connectable="0" parent="ETHcJepNX7AGd0SGcHYu-233">
          <mxGeometry x="-0.0741" y="1" relative="1" as="geometry">
            <mxPoint as="offset" />
          </mxGeometry>
        </mxCell>
        <mxCell id="ETHcJepNX7AGd0SGcHYu-236" style="edgeStyle=orthogonalEdgeStyle;rounded=0;orthogonalLoop=1;jettySize=auto;html=1;exitX=0.5;exitY=1;exitDx=0;exitDy=0;entryX=0.5;entryY=0;entryDx=0;entryDy=0;" edge="1" parent="ETHcJepNX7AGd0SGcHYu-211" source="ETHcJepNX7AGd0SGcHYu-218" target="ETHcJepNX7AGd0SGcHYu-232">
          <mxGeometry relative="1" as="geometry" />
        </mxCell>
        <mxCell id="ETHcJepNX7AGd0SGcHYu-237" value="has many" style="edgeLabel;html=1;align=center;verticalAlign=middle;resizable=0;points=[];" vertex="1" connectable="0" parent="ETHcJepNX7AGd0SGcHYu-236">
          <mxGeometry x="-0.1" relative="1" as="geometry">
            <mxPoint as="offset" />
          </mxGeometry>
        </mxCell>
        <mxCell id="ETHcJepNX7AGd0SGcHYu-218" value="РОЗЫГРЫШ" style="rounded=1;whiteSpace=wrap;html=1;" vertex="1" parent="ETHcJepNX7AGd0SGcHYu-211">
          <mxGeometry x="270" y="60" width="120" height="60" as="geometry" />
        </mxCell>
        <mxCell id="ETHcJepNX7AGd0SGcHYu-235" style="rounded=0;orthogonalLoop=1;jettySize=auto;html=1;exitX=0;exitY=1;exitDx=0;exitDy=0;entryX=1;entryY=0;entryDx=0;entryDy=0;" edge="1" parent="ETHcJepNX7AGd0SGcHYu-211" source="ETHcJepNX7AGd0SGcHYu-222" target="ETHcJepNX7AGd0SGcHYu-232">
          <mxGeometry relative="1" as="geometry" />
        </mxCell>
        <mxCell id="ETHcJepNX7AGd0SGcHYu-239" value="has one" style="edgeLabel;html=1;align=center;verticalAlign=middle;resizable=0;points=[];" vertex="1" connectable="0" parent="ETHcJepNX7AGd0SGcHYu-235">
          <mxGeometry x="-0.0838" y="-1" relative="1" as="geometry">
            <mxPoint as="offset" />
          </mxGeometry>
        </mxCell>
        <mxCell id="ETHcJepNX7AGd0SGcHYu-241" style="edgeStyle=orthogonalEdgeStyle;rounded=0;orthogonalLoop=1;jettySize=auto;html=1;exitX=0.5;exitY=1;exitDx=0;exitDy=0;entryX=0.5;entryY=0;entryDx=0;entryDy=0;" edge="1" parent="ETHcJepNX7AGd0SGcHYu-211" source="ETHcJepNX7AGd0SGcHYu-222" target="ETHcJepNX7AGd0SGcHYu-240">
          <mxGeometry relative="1" as="geometry" />
        </mxCell>
        <mxCell id="ETHcJepNX7AGd0SGcHYu-242" value="has one" style="edgeLabel;html=1;align=center;verticalAlign=middle;resizable=0;points=[];" vertex="1" connectable="0" parent="ETHcJepNX7AGd0SGcHYu-241">
          <mxGeometry x="-0.1" relative="1" as="geometry">
            <mxPoint as="offset" />
          </mxGeometry>
        </mxCell>
        <mxCell id="ETHcJepNX7AGd0SGcHYu-222" value="РЕЗУЛЬТАТ (ПОБЕДИТЕЛЬ)" style="rounded=1;whiteSpace=wrap;html=1;" vertex="1" parent="ETHcJepNX7AGd0SGcHYu-211">
          <mxGeometry x="480" y="60" width="120" height="60" as="geometry" />
        </mxCell>
        <mxCell id="ETHcJepNX7AGd0SGcHYu-232" value="МЕНЕДЖЕР" style="rounded=1;whiteSpace=wrap;html=1;" vertex="1" parent="ETHcJepNX7AGd0SGcHYu-211">
          <mxGeometry x="270" y="160" width="120" height="60" as="geometry" />
        </mxCell>
        <mxCell id="ETHcJepNX7AGd0SGcHYu-240" value="РАЗРАБОТЧИКИ" style="rounded=1;whiteSpace=wrap;html=1;" vertex="1" parent="ETHcJepNX7AGd0SGcHYu-211">
          <mxGeometry x="480" y="160" width="120" height="60" as="geometry" />
        </mxCell>
        <mxCell id="ETHcJepNX7AGd0SGcHYu-265" style="edgeStyle=orthogonalEdgeStyle;rounded=0;orthogonalLoop=1;jettySize=auto;html=1;exitX=1;exitY=0.5;exitDx=0;exitDy=0;" edge="1" parent="ETHcJepNX7AGd0SGcHYu-211" source="ETHcJepNX7AGd0SGcHYu-264" target="ETHcJepNX7AGd0SGcHYu-218">
          <mxGeometry relative="1" as="geometry" />
        </mxCell>
        <mxCell id="ETHcJepNX7AGd0SGcHYu-266" value="has one" style="edgeLabel;html=1;align=center;verticalAlign=middle;resizable=0;points=[];" vertex="1" connectable="0" parent="ETHcJepNX7AGd0SGcHYu-265">
          <mxGeometry x="-0.015" y="1" relative="1" as="geometry">
            <mxPoint as="offset" />
          </mxGeometry>
        </mxCell>
        <mxCell id="ETHcJepNX7AGd0SGcHYu-264" value="СОБЫТИЕ" style="rounded=1;whiteSpace=wrap;html=1;" vertex="1" parent="ETHcJepNX7AGd0SGcHYu-211">
          <mxGeometry x="80" y="60" width="120" height="60" as="geometry" />
        </mxCell>
        <mxCell id="ETHcJepNX7AGd0SGcHYu-262" style="edgeStyle=orthogonalEdgeStyle;rounded=0;orthogonalLoop=1;jettySize=auto;html=1;exitX=0.5;exitY=1;exitDx=0;exitDy=0;entryX=0.5;entryY=1;entryDx=0;entryDy=0;shape=link;dashed=1;dashPattern=12 12;fillColor=#0050ef;strokeColor=#001DBC;" edge="1" parent="1" source="ETHcJepNX7AGd0SGcHYu-47" target="ETHcJepNX7AGd0SGcHYu-255">
          <mxGeometry relative="1" as="geometry">
            <mxPoint x="2350" y="830" as="targetPoint" />
            <Array as="points">
              <mxPoint x="910" y="770" />
              <mxPoint x="3940" y="770" />
            </Array>
          </mxGeometry>
        </mxCell>
        <mxCell id="ETHcJepNX7AGd0SGcHYu-263" style="edgeStyle=orthogonalEdgeStyle;rounded=0;orthogonalLoop=1;jettySize=auto;html=1;exitX=0.5;exitY=1;exitDx=0;exitDy=0;entryX=0.5;entryY=1;entryDx=0;entryDy=0;shape=link;dashed=1;dashPattern=12 12;fillColor=#0050ef;strokeColor=#001DBC;" edge="1" parent="1" source="ETHcJepNX7AGd0SGcHYu-255" target="ETHcJepNX7AGd0SGcHYu-232">
          <mxGeometry relative="1" as="geometry">
            <Array as="points">
              <mxPoint x="3940" y="770" />
              <mxPoint x="4490" y="770" />
            </Array>
          </mxGeometry>
        </mxCell>
        <mxCell id="ETHcJepNX7AGd0SGcHYu-267" style="edgeStyle=orthogonalEdgeStyle;rounded=0;orthogonalLoop=1;jettySize=auto;html=1;exitX=1;exitY=0.5;exitDx=0;exitDy=0;entryX=0;entryY=0.5;entryDx=0;entryDy=0;shape=link;dashed=1;dashPattern=12 12;fillColor=#6a00ff;strokeColor=#3700CC;" edge="1" parent="1" source="ETHcJepNX7AGd0SGcHYu-194" target="ETHcJepNX7AGd0SGcHYu-264">
          <mxGeometry relative="1" as="geometry" />
        </mxCell>
        <mxCell id="ETHcJepNX7AGd0SGcHYu-268" value="УПРАВЛЕНИЕ КАЧЕСТВОМ" style="swimlane;whiteSpace=wrap;html=1;startSize=30;" vertex="1" parent="1">
          <mxGeometry x="4920" y="160" width="640" height="260" as="geometry" />
        </mxCell>
        <mxCell id="ETHcJepNX7AGd0SGcHYu-289" style="edgeStyle=orthogonalEdgeStyle;rounded=0;orthogonalLoop=1;jettySize=auto;html=1;exitX=1;exitY=0.5;exitDx=0;exitDy=0;entryX=0;entryY=0.5;entryDx=0;entryDy=0;" edge="1" parent="ETHcJepNX7AGd0SGcHYu-268" source="ETHcJepNX7AGd0SGcHYu-273" target="ETHcJepNX7AGd0SGcHYu-288">
          <mxGeometry relative="1" as="geometry" />
        </mxCell>
        <mxCell id="ETHcJepNX7AGd0SGcHYu-290" value="has many" style="edgeLabel;html=1;align=center;verticalAlign=middle;resizable=0;points=[];" vertex="1" connectable="0" parent="ETHcJepNX7AGd0SGcHYu-289">
          <mxGeometry x="-0.0667" y="1" relative="1" as="geometry">
            <mxPoint as="offset" />
          </mxGeometry>
        </mxCell>
        <mxCell id="ETHcJepNX7AGd0SGcHYu-273" value="ОТЧЁТ" style="rounded=1;whiteSpace=wrap;html=1;" vertex="1" parent="ETHcJepNX7AGd0SGcHYu-268">
          <mxGeometry x="270" y="60" width="120" height="60" as="geometry" />
        </mxCell>
        <mxCell id="ETHcJepNX7AGd0SGcHYu-286" style="edgeStyle=orthogonalEdgeStyle;rounded=0;orthogonalLoop=1;jettySize=auto;html=1;exitX=0.5;exitY=0;exitDx=0;exitDy=0;entryX=0.5;entryY=1;entryDx=0;entryDy=0;" edge="1" parent="ETHcJepNX7AGd0SGcHYu-268" source="ETHcJepNX7AGd0SGcHYu-279" target="ETHcJepNX7AGd0SGcHYu-273">
          <mxGeometry relative="1" as="geometry" />
        </mxCell>
        <mxCell id="ETHcJepNX7AGd0SGcHYu-287" value="has many" style="edgeLabel;html=1;align=center;verticalAlign=middle;resizable=0;points=[];" vertex="1" connectable="0" parent="ETHcJepNX7AGd0SGcHYu-286">
          <mxGeometry x="-0.0616" relative="1" as="geometry">
            <mxPoint as="offset" />
          </mxGeometry>
        </mxCell>
        <mxCell id="ETHcJepNX7AGd0SGcHYu-279" value="СОТРУДНИК ОТДЕЛА" style="rounded=1;whiteSpace=wrap;html=1;" vertex="1" parent="ETHcJepNX7AGd0SGcHYu-268">
          <mxGeometry x="270" y="160" width="120" height="60" as="geometry" />
        </mxCell>
        <mxCell id="ETHcJepNX7AGd0SGcHYu-281" style="edgeStyle=orthogonalEdgeStyle;rounded=0;orthogonalLoop=1;jettySize=auto;html=1;exitX=1;exitY=0.5;exitDx=0;exitDy=0;" edge="1" parent="ETHcJepNX7AGd0SGcHYu-268" source="ETHcJepNX7AGd0SGcHYu-283" target="ETHcJepNX7AGd0SGcHYu-273">
          <mxGeometry relative="1" as="geometry" />
        </mxCell>
        <mxCell id="ETHcJepNX7AGd0SGcHYu-282" value="has one" style="edgeLabel;html=1;align=center;verticalAlign=middle;resizable=0;points=[];" vertex="1" connectable="0" parent="ETHcJepNX7AGd0SGcHYu-281">
          <mxGeometry x="-0.015" y="1" relative="1" as="geometry">
            <mxPoint as="offset" />
          </mxGeometry>
        </mxCell>
        <mxCell id="ETHcJepNX7AGd0SGcHYu-283" value="РЕЗУЛЬТАТ&lt;div&gt;ВЫПОЛНЕНИЯ&lt;br&gt;&lt;div&gt;ЗАДАЧИ&lt;/div&gt;&lt;/div&gt;" style="rounded=1;whiteSpace=wrap;html=1;" vertex="1" parent="ETHcJepNX7AGd0SGcHYu-268">
          <mxGeometry x="80" y="60" width="120" height="60" as="geometry" />
        </mxCell>
        <mxCell id="ETHcJepNX7AGd0SGcHYu-288" value="ГИПОТЕЗА" style="rounded=1;whiteSpace=wrap;html=1;" vertex="1" parent="ETHcJepNX7AGd0SGcHYu-268">
          <mxGeometry x="480" y="60" width="120" height="60" as="geometry" />
        </mxCell>
        <mxCell id="ETHcJepNX7AGd0SGcHYu-292" style="edgeStyle=orthogonalEdgeStyle;rounded=0;orthogonalLoop=1;jettySize=auto;html=1;exitX=0.5;exitY=0;exitDx=0;exitDy=0;entryX=0.5;entryY=0;entryDx=0;entryDy=0;fillColor=#6a00ff;strokeColor=#3700CC;shape=link;dashed=1;dashPattern=12 12;" edge="1" parent="1" source="ETHcJepNX7AGd0SGcHYu-194" target="ETHcJepNX7AGd0SGcHYu-283">
          <mxGeometry relative="1" as="geometry">
            <Array as="points">
              <mxPoint x="3940" y="140" />
              <mxPoint x="5060" y="140" />
            </Array>
          </mxGeometry>
        </mxCell>
      </root>
    </mxGraphModel>
  </diagram>
</mxfile>
